<svg xmlns="http://www.w3.org/2000/svg" width="24" height="24" viewBox="0 0 24 24" fill="none" stroke="currentColor" stroke-width="2" stroke-linecap="round" stroke-linejoin="round">
  <path d="M23 3a10.9 10.9 0 0 1-3.1.9A4.5 4.5 0 0 0 22.4 2a9 9 0 0 1-2.8 1.1A4.5 4.5 0 0 0 16.5 0a4.5 4.5 0 0 0-4.5 4.5c0 .4 0 .8.1 1.2A12.8 12.8 0 0 1 1.6 1.1a4.5 4.5 0 0 0 1.4 6A4.5 4.5 0 0 1 .9 7v.1a4.5 4.5 0 0 0 3.6 4.4 4.5 4.5 0 0 1-2 .1 4.5 4.5 0 0 0 4.2 3.1A9 9 0 0 1 0 19.5a12.8 12.8 0 0 0 6.9 2A12.8 12.8 0 0 0 19.5 7.5c0-.2 0-.4 0-.6A9 9 0 0 0 23 3z"/>
</svg>